<svg width="240" height="324" viewBox="0 0 240 324" fill="none" xmlns="http://www.w3.org/2000/svg">
<path d="M21.6087 11.3084C27.1821 7.55052 51.7951 0.48575 105.661 2.28952C141.596 1.69777 201.23 2.03783 210.499 6.61111M21.6087 11.3084C16.186 13.7644 10.7633 41.5216 10.7633 40.1688M21.6087 11.3084L27.9352 11.6372M205.529 11.3084L198.298 11.881M205.529 11.3084C211.833 9.39043 213.003 7.84636 210.499 6.61111M205.529 11.3084H212.533M177.059 13.5631C148.138 15.0663 85.2351 17.1707 64.9903 13.5631M177.059 13.5631C140.908 4.18351 87.2837 9.65495 64.9903 13.5631M177.059 13.5631L159.888 12.2103C132.021 11.3084 77.1914 10.2261 80.8065 13.1122C84.4217 15.9982 135.485 9.95558 135.485 9.95558M177.059 13.5631L188.809 12.6326M64.9903 13.5631L47.3666 12.6471M10.7633 40.1688C13.6253 40.6197 19.2589 41.251 18.8974 40.1688M10.7633 40.1688L9.79809 39.9623C6.36993 39.2293 2.75807 39.7808 2.21251 43.2438V43.2438C1.38803 48.4771 6.03876 52.972 11.2617 53.8602C12.7582 54.1147 14.249 54.3639 15.7342 54.6079M27.9352 11.6372C24.772 20.6968 18.5359 39.0865 18.8974 40.1688M27.9352 11.6372L41.9439 12.3653M18.8974 40.1688C20.861 40.4684 22.8193 40.758 24.772 41.0377M220.441 40.1688L228.575 39.2669M220.441 40.1688C222.249 40.1688 215.922 20.9285 212.533 11.3084M220.441 40.1688C218.675 40.5286 216.714 40.8973 214.566 41.2691M197.846 43.7017C200.892 43.3278 203.758 42.9438 206.432 42.5561M197.846 43.7017C197.244 33.7439 198.118 19.5739 206.432 42.5561M197.846 43.7017C185.402 45.229 169.948 46.5864 152.205 47.3321M206.432 42.5561C209.38 42.1287 212.096 41.6968 214.566 41.2691M200.106 33.4046C199.955 35.0581 199.744 38.7257 200.106 40.1688C200.462 41.5914 202.019 39.0403 202.785 37.5276C202.805 37.4872 202.802 37.4399 202.777 37.4023V37.4023C202.691 37.2736 202.493 37.3835 202.558 37.5243L204.173 41.0706L202.828 38.1617C201.918 36.1958 200.857 34.3038 199.654 32.5027V32.5027M188.809 12.6326L193.328 18.5235M188.809 12.6326L198.298 11.881M193.328 18.5235C191.52 15.7486 191.43 12.6999 198.298 11.881M193.328 18.5235C193.779 19.8763 197.937 11.6176 198.298 11.881M219.537 11.3084L210.499 6.61111M219.537 11.3084C223.152 19.8763 230.021 37.4631 228.575 39.2669M219.537 11.3084H212.533M228.575 39.2669H230.221C232.996 39.2669 234.559 38.6181 236.127 40.9072V40.9072C239.589 45.9584 233.993 53.5878 228.047 55.0518C226.915 55.3304 225.735 55.6091 224.508 55.8867M15.7342 54.6079C17.5417 73.3942 20.705 110.967 18.8974 110.967M15.7342 54.6079C17.0946 54.8314 18.4503 55.0505 19.8012 55.2653M18.8974 110.967C16.9392 110.666 13.0228 111.147 13.0228 115.476L24.992 224.679C25.4208 228.592 27.8217 231.894 31.0985 234.074V234.074M18.8974 110.967L15.657 113.841C15.1313 114.307 14.8304 114.977 14.8304 115.679V116.454C14.8304 117.193 15.3594 117.827 16.087 117.959L16.2457 117.988C17.5401 118.223 18.4636 116.764 17.6979 115.694L17.6229 115.59C17.5692 115.515 17.5024 115.45 17.4256 115.399V115.399C16.9086 115.055 16.9989 114.27 17.5804 114.053L19.1872 113.451C19.5698 113.308 19.999 113.37 20.326 113.614L20.5513 113.783C21.0796 114.178 21.0796 114.97 20.5513 115.366V115.366C20.1307 115.681 20.0298 116.269 20.3217 116.706L20.5512 117.05C21.0795 117.841 22.2194 117.902 22.829 117.172L23.6027 116.245C23.7763 116.037 24.0043 115.882 24.2613 115.796V115.796C24.8398 115.604 25.477 115.792 25.8584 116.268L25.9272 116.353C26.5205 117.094 26.3514 118.183 25.5616 118.709L24.4093 119.475C23.5204 120.067 23.0288 121.075 23.1351 122.138C26.6366 157.14 32.8768 225.911 31.0985 234.074M18.8974 110.967C22.1286 112.253 25.4045 113.454 28.7178 114.574M31.0985 234.074L33.4389 287.792C33.6724 293.149 36.3875 298.142 41.0401 300.808V300.808M31.0985 234.074C34.578 235.504 38.673 236.994 43.2995 238.466M209.596 232.27L205.412 286.163C204.914 292.574 201.577 298.489 196.039 301.755V301.755M209.596 232.27V232.27C214.579 230.613 214.917 224.239 215.598 219.031C219.402 189.944 224.965 145.172 226.511 125.101C227.027 118.402 226.205 109.995 219.537 109.163V109.163M209.596 232.27C208.248 232.89 206.896 233.491 205.541 234.074M219.537 109.163L224.508 55.8867M219.537 109.163L218.816 113.24C218.745 113.644 219.319 113.801 219.464 113.418V113.418C219.509 113.297 219.619 113.212 219.747 113.207C221.034 113.162 220.913 114.016 219.537 113.672C218.429 113.396 219.904 112.308 220.789 111.746C221.139 111.524 221.565 111.491 221.958 111.622V111.622C222.426 111.777 222.792 112.144 222.948 112.611L223.152 113.222L223.706 115.707C223.898 116.57 223.343 117.422 222.476 117.595L222.039 117.683C220.98 117.894 220.118 116.83 220.544 115.837L220.86 115.101C220.88 115.055 220.926 115.025 220.976 115.025V115.025C221.128 115.025 221.149 115.245 221 115.274L217.829 115.907C217.764 115.92 217.702 115.948 217.649 115.988L215.922 117.28M224.508 55.8867C222.929 56.244 221.272 56.5996 219.537 56.9515M215.922 117.28C213.911 155.61 209.02 232.631 205.541 234.074M215.922 117.28C214.195 117.727 212.348 118.179 210.388 118.633M205.541 234.074C202.688 235.301 199.82 236.447 196.943 237.516M196.943 237.516L204.625 119.9M196.943 237.516C192.145 239.297 187.319 240.863 182.482 242.232M204.625 119.9C205.081 119.805 205.533 119.709 205.981 119.613M204.625 119.9C203.45 120.145 202.245 120.39 201.01 120.633M189.261 122.736L182.482 242.232M189.261 122.736C184.973 123.432 180.442 124.093 175.704 124.699M189.261 122.736C191.115 122.435 192.923 122.128 194.683 121.815M182.482 242.232C178.72 243.296 174.951 244.241 171.185 245.074M175.704 124.699L171.185 245.074M175.704 124.699C171.632 125.22 167.406 125.7 163.051 126.127M171.185 245.074C167.414 245.908 163.645 246.631 159.888 247.25M163.051 126.127L159.888 247.25M163.051 126.127C158.372 126.585 153.542 126.982 148.59 127.3M159.888 247.25C155.195 248.022 150.52 248.634 145.879 249.099M148.59 127.3L145.879 249.099M148.59 127.3C144.889 127.538 141.119 127.733 137.293 127.877M145.879 249.099C143.002 249.388 140.139 249.62 137.293 249.801M137.293 127.877V249.801M137.293 127.877C131.387 128.1 125.347 128.203 119.217 128.161M137.293 249.801C131.174 250.188 125.136 250.335 119.217 250.277M119.217 128.161V250.277M119.217 128.161C113.854 128.125 108.422 127.978 102.949 127.704M119.217 250.277C114.663 250.233 110.18 250.069 105.787 249.801M102.949 127.704L105.787 249.801M102.949 127.704C99.0495 127.509 95.1296 127.249 91.2001 126.919M105.787 249.801C101.905 249.564 98.0925 249.246 94.3633 248.859M91.2001 126.919L94.3633 248.859M91.2001 126.919C86.2375 126.502 81.2596 125.972 76.2876 125.318M94.3633 248.859C89.3855 248.343 84.5552 247.705 79.9028 246.971M76.2876 125.318L79.9028 246.971M76.2876 125.318C72.5153 124.822 68.7465 124.253 64.9903 123.608M79.9028 246.971C76.2352 246.393 72.6781 245.756 69.2463 245.074M64.9903 123.608L69.2463 245.074M64.9903 123.608C60.2948 122.802 55.6192 121.876 50.9817 120.818M69.2463 245.074C64.8072 244.192 60.5778 243.234 56.59 242.232M50.9817 120.818L56.59 242.232M50.9817 120.818C49.9252 120.578 48.8708 120.33 47.8185 120.076M56.59 242.232C51.7912 241.025 47.3424 239.752 43.2995 238.466M35.1655 116.639L43.2995 238.466M35.1655 116.639C33.9217 116.262 32.6823 115.875 31.4477 115.476M35.1655 116.639C36.4019 117.014 37.6427 117.377 38.8876 117.731M23.8682 83.4593L19.8012 55.2653M23.8682 83.4593V55.9012M23.8682 83.4593C22.0606 72.6366 19.9819 52.5246 26.1277 58.6574C30.597 63.1174 30.2388 62.4419 28.8418 60.7588C28.3257 60.137 27.3384 60.5975 27.4647 61.3956V61.3956C27.6116 62.3237 29.1902 62.3278 29.43 61.4192C30.0835 58.943 30.9691 57.214 32.0023 58.6574C33.3879 60.5933 35.9244 61.0628 37.7794 61.0411C38.5403 61.0321 39.2325 61.6124 39.2325 62.3734V62.3734C39.2325 63.6913 41.0327 64.073 41.5676 62.8685L43.4374 58.6574M19.8012 55.2653C21.1617 55.4816 22.5174 55.6936 23.8682 55.9012M23.8682 55.9012C30.5116 56.9223 37.036 57.8387 43.4374 58.6574M43.4374 58.6574C112.103 67.4398 166.61 64.9843 201.914 59.9574M30.1947 23.9348L24.772 41.0377M24.772 41.0377C28.865 41.624 32.9332 42.167 36.9731 42.6687M40.5882 32.9537L36.9731 42.6687M36.9731 42.6687C53.6593 44.7413 69.8608 46.1114 85.3255 46.9336M44.2033 21.2291L41.9439 12.3653M44.2033 21.2291L47.3666 12.6471M44.2033 21.2291L44.6552 12.5062M41.9439 12.3653L44.6552 12.5062M47.3666 12.6471L44.6552 12.5062M85.3255 46.9336C85.4761 44.8289 86.2293 40.3491 88.0368 39.2669M85.3255 46.9336C108.686 48.1755 130.366 48.1671 149.494 47.4405M88.0368 39.2669C89.4147 38.4419 89.6547 41.5827 89.5575 44.4543C89.5267 45.363 88.4067 45.7036 87.8381 44.9941V44.9941C87.6755 44.7912 87.597 44.5338 87.6186 44.2748L88.0368 39.2669ZM149.494 47.4405C149.946 44.5656 151.211 38.9963 152.657 39.7178M149.494 47.4405C150.404 47.406 151.307 47.3698 152.205 47.3321M152.657 39.7178C153.679 40.2277 154.16 42.5697 154.353 44.6423C154.477 45.9637 153.512 47.1012 152.205 47.3321V47.3321M152.657 39.7178L152.205 47.3321M214.566 41.2691L210.499 24.8367M219.537 56.9515C219.537 57.3065 219.535 57.6595 219.53 58.0105C219.46 63.3062 216.382 62.7638 216.826 57.4862V57.4862M219.537 56.9515C218.654 57.1308 217.75 57.3091 216.826 57.4862M219.537 56.9515L216.826 57.4862M216.826 57.4862C215.228 57.7925 213.571 58.0952 211.855 58.3927M211.855 58.3927C211.855 63.1407 211.765 71.8249 211.403 68.5782C211.042 65.3314 209.445 60.7895 208.692 58.9244M211.855 58.3927C210.822 58.5719 209.767 58.7492 208.692 58.9244M208.692 58.9244C206.518 59.2784 204.258 59.6236 201.914 59.9574M201.914 59.9574C201.914 63.4322 201.642 70.1114 200.558 69.0291C199.473 67.9468 199.202 62.8662 199.202 60.4612M205.981 119.613C206.432 112.522 207.607 98.7011 208.692 100.144M205.981 119.613C206.805 119.437 207.613 119.26 208.404 119.084M208.692 100.144C209.776 101.587 210.275 113.071 210.388 118.633M208.692 100.144L208.404 119.084M210.388 118.633C209.739 118.783 209.078 118.933 208.404 119.084M191.52 122.24C191.52 118.182 191.791 110.426 192.876 111.869C193.96 113.312 194.533 119.101 194.683 121.815M194.683 121.815C195.292 121.707 195.894 121.599 196.491 121.49M196.491 121.49C196.792 116.178 197.575 106.097 198.298 108.261M196.491 121.49C197.254 121.35 198.007 121.21 198.75 121.069M198.298 108.261C199.021 110.426 200.407 117.411 201.01 120.633M198.298 108.261L198.75 121.069M201.01 120.633C200.267 120.779 199.514 120.925 198.75 121.069M41.0401 300.808C41.7932 286.831 43.2995 259.598 43.2995 262.484C43.2995 265.37 43.2995 290.079 43.2995 302.073M41.0401 300.808C41.7751 301.229 42.5284 301.651 43.2995 302.073M43.2995 302.073C45.0201 303.014 46.8294 303.955 48.7222 304.887M48.7222 304.887C49.3248 297.367 50.6202 283.317 50.9817 287.285C51.3432 291.254 51.7349 301.682 51.8855 306.4M48.7222 304.887C49.7522 305.395 50.8069 305.9 51.8855 306.4M51.8855 306.4C54.3271 307.534 56.8911 308.648 59.5676 309.727M59.5676 309.727C60.1702 304.802 61.3752 295.312 61.3752 296.755C61.3752 298.198 61.9777 306.714 62.279 310.792M59.5676 309.727C60.4591 310.086 61.363 310.441 62.279 310.792M62.279 310.792C91.6108 322.023 133.377 328.633 175.704 311.753M175.704 311.753C176.306 306.303 177.511 295.763 177.511 297.206C177.511 298.649 178.415 306.635 178.867 310.448M175.704 311.753C176.758 311.332 177.812 310.897 178.867 310.448M178.867 310.448C181.729 309.227 184.592 307.897 187.453 306.451M187.453 306.451C187.905 299.912 188.809 287.376 188.809 289.54C188.809 291.705 189.411 300.939 189.712 305.285M187.453 306.451C188.206 306.071 188.96 305.682 189.712 305.285M189.712 305.285C190.798 304.714 191.882 304.125 192.966 303.519M192.966 303.519C194.292 283.828 196.943 248.955 196.943 266.993C196.943 285.031 196.34 297.683 196.039 301.755M192.966 303.519C193.991 302.947 195.015 302.359 196.039 301.755M28.7178 114.574C29.0595 109.464 29.8332 99.6932 30.1947 101.497C30.5562 103.301 31.1807 111.568 31.4477 115.476M28.7178 114.574C29.625 114.881 30.5351 115.182 31.4477 115.476M38.8876 117.731C39.7557 113.222 41.4016 105.555 41.0401 110.967C41.0281 111.145 41.0185 111.314 41.011 111.473C40.8127 115.674 47.7481 109.033 47.3666 113.222V113.222C47.0051 117.19 47.5172 119.444 47.8185 120.076M38.8876 117.731C41.8434 118.57 44.822 119.351 47.8185 120.076M41.0401 116.378C42.3958 116.679 45.1975 117.28 45.559 117.28C45.9192 117.28 45.4121 113.997 45.1104 112.338C45.1082 112.325 45.1071 112.313 45.1071 112.301V112.301C45.1071 112.08 44.818 112.014 44.726 112.214C44.2763 113.192 43.7514 114.475 43.7514 115.025C43.7514 115.747 41.3413 116.228 40.1363 116.378" stroke="#444A4A" stroke-width="4"/>
</svg>
