<svg width="348" height="377" viewBox="0 0 348 377" fill="none" xmlns="http://www.w3.org/2000/svg">
<path d="M54.4543 27.0693V27.0693C53.7516 26.9912 48.7932 23.6498 48.7932 22.9427V9.5313C47.8874 0.932032 25.3941 1.42234 14.2606 2.7424C2.03267 5.00537 1.24012 31.218 2.37234 44.0415V44.0415C2.37234 53.4407 16.7684 50.8304 26.1676 50.8304H54.4543M54.4543 27.0693V50.8304M54.4543 27.0693C55.1745 27.1492 58.2147 27.2068 62.9459 27.2464M175.601 27.0693V27.0693C175.601 16.1335 184.467 7.26833 195.402 7.26833H206.519C215.347 7.26833 223.814 13.3794 222.306 22.0776C222.208 22.6421 222.09 23.2006 221.95 23.7492C221.672 24.8373 221.456 25.9462 221.456 27.0693V27.0693M175.601 27.0693H182.961M175.601 27.0693C146.617 27.2106 95.3441 27.3942 69.7392 27.287M221.456 27.0693H229.949C231.199 27.0693 232.212 26.0561 232.212 24.8063V24.8063V44.6072C232.212 46.6816 231.193 50.8304 227.117 50.8304H221.456M221.456 27.0693H214.663M54.4543 50.8304H62.9459M62.9459 27.2464V50.8304M62.9459 27.2464C63.3132 27.2495 63.6907 27.2525 64.0781 27.2553M62.9459 50.8304L177.866 50.8304M77.6647 44.0415C77.6647 44.0415 121.138 44.0415 148.994 44.0415M10.2979 44.6072C16.3363 45.3616 35.2066 46.3045 35.2066 46.3045M13.6945 10.097C13.6945 10.097 26.8056 10.097 35.2066 10.097M177.866 50.8304V90.998M177.866 50.8304H183.527M177.866 90.998H120.123M177.866 90.998H183.527M98.0446 111.365V96.6591C98.0446 93.5326 100.579 90.998 103.706 90.998V90.998M98.0446 111.365H85.0241C83.5145 111.176 80.6085 112.157 81.0614 117.588C81.7088 128.264 83.828 147.764 87.5617 151.953C88.5585 153.071 90.3193 152.664 91.8174 152.664V152.664M98.0446 111.365H104.838M103.706 90.998L104.838 111.365M103.706 90.998H120.123M104.838 111.365H111.631M120.123 90.998V111.365M120.123 111.365H111.631M120.123 111.365H129.181M300.145 111.365H311.467C317.808 110.912 319.016 114.948 318.827 117.022C318.511 135.633 313.961 145.615 311.232 149.955C310.073 151.799 307.984 152.664 305.806 152.664V152.664M300.145 111.365V97.2252C300.145 93.786 297.357 90.998 293.918 90.998V90.998M300.145 111.365H293.918M293.918 90.998V111.365M293.918 90.998H279.199M293.918 111.365H279.199M279.199 90.998V111.365M279.199 90.998H221.456M279.199 111.365H269.009M221.456 50.8304V90.998M221.456 50.8304H214.663M221.456 90.998H215.229M100.875 158.887H299.013M305.806 152.664H302.41H300.145M305.806 152.664L345.743 352.217C345.914 353.072 346 353.941 346 354.812V354.812C346 358.32 344.606 361.684 342.125 364.164L338.637 367.649C333.927 372.356 327.541 375 320.882 375H89.4158C76.0917 375 63.3128 369.709 53.8882 360.291V360.291V360.291C52.8269 359.23 52.3647 357.71 52.656 356.238L92.9496 152.664M305.806 152.664L309.769 122.114M92.9496 152.664H91.8174M92.9496 152.664H98.0446M99.1768 166.807H118.991M95.2141 177.556H113.896M280.331 167.373H299.013M285.426 178.122C292.059 178.122 295.777 178.122 302.41 178.122M60.6815 349.542C77.2624 349.542 86.5587 349.542 103.14 349.542M60.6815 359.159L165.411 362.554M69.1731 365.948C91.281 366.611 103.676 366.983 125.784 367.645M294.484 348.976L338.641 349.542M232.212 362.554C232.212 362.554 296.043 360.485 336.942 359.159M272.972 367.645C295.08 366.983 307.475 366.611 329.583 365.948M88.9869 122.68L91.8174 152.664M96.3463 134.56L98.0446 152.664M98.0446 152.664H300.145M111.065 100.05L111.631 111.365M130.313 99.4841L129.181 111.365M129.181 111.365H269.009M268.443 98.9184L269.009 111.365M287.691 100.616V111.93M301.844 133.994L300.145 152.664M186 16V16C183.743 19.2244 182.663 23.1447 182.961 27.0693V27.0693M182.961 27.0693H214.663M213.5 14.5V14.5C214.779 16.0983 215.357 18.1458 215.103 20.1768L215 21L214.663 27.0693M214.663 68.9341V50.8304M214.663 50.8304H183.527M184.093 68.9341L183.527 50.8304M184.093 80.2489L183.527 90.998M183.527 90.998H215.229M214.663 79.6832L215.229 90.998M65.7765 28.2007H68.607H69.0701C69.1366 28.2007 69.2009 28.1771 69.2517 28.1342V28.1342C69.467 27.9516 69.3088 27.6011 69.0294 27.642L67.4 27.8804C66.926 27.9497 66.8926 28.621 67.3573 28.7371V28.7371C67.4342 28.7563 67.5044 28.7961 67.5604 28.8521L67.7015 28.9931C67.9188 29.2102 68.0409 29.5048 68.0409 29.812V29.9273C68.0409 31.4147 66.0571 31.9209 65.3445 30.6152L64.7429 29.513C64.6774 29.3929 64.6261 29.2655 64.5901 29.1335L64.0781 27.2553M64.0781 27.2553C64.7993 27.2606 65.5547 27.2656 66.3426 27.2702M66.3426 27.2702C67.4162 27.2765 68.55 27.2821 69.7392 27.287M66.3426 27.2702L69.7392 27.287M48.7932 37.2526V44.6072M27 15.5L25.5828 18.0174L28.4133 15.1887L25.5828 14.623M22 13.4915C25.1519 13.6285 27.0147 13.5806 29.9851 13.5082C30.4159 13.4977 30.8227 13.7088 31.0619 14.0673V14.0673C31.4664 14.6736 31.2711 15.4955 30.6817 15.9243C29.3702 16.8785 27.8472 18.34 27.8472 19.7146C27.8472 20.0423 27.7153 20.2487 27.4914 20.3601C24.2586 21.9695 25.6112 13.4877 22 13.4915V13.4915Z" stroke="#444A4A" stroke-width="3"/>
<path d="M102.969 253.438C102.5 250.906 102.57 248.258 103.18 245.492C103.836 242.68 104.867 239.891 106.273 237.125C107.68 234.359 109.414 231.711 111.477 229.18C113.539 226.602 115.742 224.281 118.086 222.219C120.477 220.156 122.961 218.422 125.539 217.016C128.164 215.609 130.719 214.648 133.203 214.133C133.953 214.133 134.609 214.367 135.172 214.836C135.781 215.305 136.297 215.891 136.719 216.594C137.141 217.297 137.445 218.047 137.633 218.844C137.867 219.641 137.984 220.367 137.984 221.023V227.844C137.984 228.312 137.797 228.617 137.422 228.758C137.047 228.852 136.719 228.898 136.438 228.898C136.109 228.898 135.711 228.852 135.242 228.758C134.773 228.664 134.539 228.359 134.539 227.844C134.539 227.656 134.516 227.352 134.469 226.93C134.422 226.508 134.375 226.039 134.328 225.523C134.281 225.008 134.234 224.516 134.188 224.047C134.188 223.578 134.188 223.273 134.188 223.133C134.188 223.039 134.164 222.734 134.117 222.219C134.117 221.656 134.07 221.094 133.977 220.531C133.883 219.969 133.742 219.453 133.555 218.984C133.367 218.516 133.133 218.281 132.852 218.281H130.391C130.391 218.281 130.18 218.398 129.758 218.633C129.336 218.82 128.844 219.055 128.281 219.336C127.719 219.617 127.156 219.922 126.594 220.25C126.031 220.531 125.609 220.789 125.328 221.023C125.188 221.117 124.953 221.281 124.625 221.516C124.344 221.75 124.039 221.984 123.711 222.219C123.383 222.453 123.078 222.688 122.797 222.922C122.516 223.156 122.305 223.32 122.164 223.414C119.633 225.852 117.43 228.125 115.555 230.234C113.68 232.297 112.109 234.453 110.844 236.703C109.578 238.953 108.617 241.391 107.961 244.016C107.352 246.594 107.047 249.664 107.047 253.227C107.047 254.633 107.117 256.203 107.258 257.938C107.445 259.625 107.703 261.359 108.031 263.141C108.406 264.922 108.922 266.68 109.578 268.414C110.234 270.102 111.055 271.602 112.039 272.914C113.023 274.227 114.219 275.281 115.625 276.078C117.031 276.875 118.695 277.273 120.617 277.273H122.164C124.273 276.57 126.125 275.938 127.719 275.375C129.359 274.766 130.812 274.156 132.078 273.547C133.391 272.938 134.562 272.281 135.594 271.578C136.672 270.828 137.703 269.938 138.688 268.906C139.719 267.875 140.773 266.633 141.852 265.18C142.93 263.727 144.148 262.016 145.508 260.047C145.555 260.047 145.625 260.047 145.719 260.047C145.812 260 145.906 259.977 146 259.977C146.844 259.977 147.266 260.398 147.266 261.242C147.266 262.32 146.984 263.539 146.422 264.898C145.906 266.211 144.922 267.664 143.469 269.258C142.062 270.852 140.07 272.539 137.492 274.32C134.961 276.055 131.703 277.812 127.719 279.594C126.969 279.922 126.312 280.203 125.75 280.438C125.188 280.625 124.648 280.766 124.133 280.859C123.617 280.953 123.078 281 122.516 281C122 281.047 121.414 281.07 120.758 281.07C118.32 281.07 116.188 280.648 114.359 279.805C112.578 278.961 111.031 277.836 109.719 276.43C108.406 274.977 107.305 273.336 106.414 271.508C105.57 269.633 104.891 267.664 104.375 265.602C103.859 263.492 103.484 261.406 103.25 259.344C103.062 257.234 102.969 255.266 102.969 253.438ZM145.438 275.516C145.438 275.469 145.461 275.305 145.508 275.023C145.555 274.742 145.602 274.461 145.648 274.18C145.695 273.852 145.742 273.57 145.789 273.336C145.836 273.055 145.859 272.867 145.859 272.773V272.492V272.07L146.844 267.641C147.641 265.953 148.461 264.336 149.305 262.789C150.195 261.242 151.203 259.883 152.328 258.711C153.453 257.539 154.742 256.602 156.195 255.898C157.695 255.195 159.5 254.844 161.609 254.844C162.031 254.844 162.547 254.984 163.156 255.266C163.812 255.5 164.445 255.805 165.055 256.18C165.711 256.555 166.297 256.953 166.812 257.375C167.375 257.75 167.797 258.102 168.078 258.43C169.531 258.195 170.586 258.078 171.242 258.078C171.898 258.031 172.461 258.008 172.93 258.008C173.398 257.961 173.891 257.867 174.406 257.727C174.969 257.586 175.812 257.281 176.938 256.812C177.734 256.578 178.508 256.461 179.258 256.461C179.586 256.461 179.891 256.602 180.172 256.883C180.5 257.164 180.664 257.492 180.664 257.867C180.664 258.336 180.5 258.758 180.172 259.133C179.844 259.508 179.445 259.742 178.977 259.836L170.188 261.805L169.414 262.156C169.367 264.688 168.805 267.102 167.727 269.398C166.648 271.695 165.219 273.711 163.438 275.445C161.656 277.18 159.594 278.562 157.25 279.594C154.906 280.578 152.469 281.07 149.938 281.07C149.75 281.07 149.445 281.047 149.023 281C148.602 281 148.32 281 148.18 281C147.148 280.578 146.422 279.805 146 278.68C145.625 277.555 145.438 276.5 145.438 275.516ZM149.938 276.922C149.984 277.156 150.172 277.273 150.5 277.273C150.828 277.273 151.062 277.273 151.203 277.273C152.891 277.273 154.625 276.852 156.406 276.008C158.188 275.117 159.781 273.992 161.188 272.633C162.641 271.227 163.812 269.656 164.703 267.922C165.641 266.141 166.109 264.359 166.109 262.578C164.609 262.578 163.109 262.461 161.609 262.227C160.109 261.945 158.656 261.805 157.25 261.805H157.18L151.344 267.992C151.016 268.32 150.758 268.766 150.57 269.328C150.383 269.891 150.242 270.5 150.148 271.156C150.055 271.812 149.984 272.469 149.938 273.125C149.891 273.781 149.867 274.367 149.867 274.883C149.867 275.023 149.867 275.352 149.867 275.867C149.867 276.383 149.891 276.734 149.938 276.922ZM177.43 303.641C177.43 303.5 177.43 303.266 177.43 302.938C177.43 302.656 177.43 302.352 177.43 302.023C177.43 301.742 177.43 301.484 177.43 301.25C177.43 301.062 177.43 300.945 177.43 300.898L179.891 278.891C180.219 277.156 180.5 275.797 180.734 274.812C180.969 273.781 181.156 273.008 181.297 272.492C181.484 271.93 181.672 271.555 181.859 271.367L186.992 254.914C187.18 254.352 187.531 253.555 188.047 252.523C188.562 251.445 189.148 250.391 189.805 249.359C190.508 248.328 191.258 247.461 192.055 246.758C192.852 246.008 193.648 245.633 194.445 245.633C194.773 245.633 195.055 245.75 195.289 245.984C195.523 246.219 195.711 246.5 195.852 246.828C196.039 247.156 196.156 247.508 196.203 247.883C196.297 248.258 196.344 248.562 196.344 248.797C196.344 250.953 196.039 253.156 195.43 255.406C194.867 257.656 194.117 259.883 193.18 262.086C192.242 264.242 191.117 266.305 189.805 268.273C188.492 270.242 187.109 271.977 185.656 273.477L184.602 277.273C189.898 277.18 195.031 276.312 200 274.672C205.016 273.031 209.82 271.016 214.414 268.625H214.766C215.188 268.625 215.469 268.789 215.609 269.117C215.797 269.398 215.891 269.703 215.891 270.031C215.891 270.406 215.82 270.734 215.68 271.016C215.539 271.297 215.234 271.555 214.766 271.789C211.062 274.086 207.102 275.961 202.883 277.414C198.664 278.867 194.398 279.969 190.086 280.719C190.93 281.656 191.633 282.43 192.195 283.039C192.758 283.648 193.203 284.258 193.531 284.867C193.906 285.523 194.164 286.273 194.305 287.117C194.492 287.961 194.586 289.109 194.586 290.562C194.586 294.219 193.719 297.406 191.984 300.125C190.297 302.891 188.07 305.445 185.305 307.789C184.648 308.305 183.828 308.844 182.844 309.406C181.906 309.969 180.992 310.25 180.102 310.25C179.305 310.25 178.719 309.992 178.344 309.477C177.969 308.961 177.711 308.352 177.57 307.648C177.43 306.992 177.383 306.289 177.43 305.539C177.43 304.789 177.43 304.156 177.43 303.641ZM183.195 283.742C183.008 285.195 182.797 286.836 182.562 288.664C182.328 290.492 182.117 292.367 181.93 294.289C181.742 296.211 181.578 298.133 181.438 300.055C181.297 301.977 181.227 303.781 181.227 305.469C182.492 305.469 183.711 304.906 184.883 303.781C186.102 302.703 187.18 301.367 188.117 299.773C189.055 298.227 189.828 296.633 190.438 294.992C191.047 293.352 191.375 291.992 191.422 290.914C191.516 289.602 191.422 288.477 191.141 287.539C190.906 286.648 190.508 285.875 189.945 285.219C189.383 284.609 188.656 284.094 187.766 283.672C186.875 283.25 185.82 282.828 184.602 282.406H184.25C183.922 282.406 183.688 282.547 183.547 282.828C183.406 283.109 183.289 283.414 183.195 283.742ZM191.844 253.578C191.797 253.578 191.703 253.766 191.562 254.141C191.422 254.469 191.234 254.844 191 255.266C190.812 255.688 190.625 256.133 190.438 256.602C190.297 257.07 190.18 257.422 190.086 257.656C189.945 258.031 189.781 258.523 189.594 259.133C189.406 259.695 189.219 260.281 189.031 260.891C188.891 261.453 188.75 261.969 188.609 262.438C188.469 262.859 188.398 263.094 188.398 263.141V263.562C189.289 261.969 190.109 260.305 190.859 258.57C191.609 256.789 192.031 255.008 192.125 253.227L191.844 253.578ZM212.516 303.641C212.516 303.5 212.516 303.266 212.516 302.938C212.516 302.656 212.516 302.352 212.516 302.023C212.516 301.742 212.516 301.484 212.516 301.25C212.516 301.062 212.516 300.945 212.516 300.898L214.977 278.891C215.305 277.156 215.586 275.797 215.82 274.812C216.055 273.781 216.242 273.008 216.383 272.492C216.57 271.93 216.758 271.555 216.945 271.367L222.078 254.914C222.266 254.352 222.617 253.555 223.133 252.523C223.648 251.445 224.234 250.391 224.891 249.359C225.594 248.328 226.344 247.461 227.141 246.758C227.938 246.008 228.734 245.633 229.531 245.633C229.859 245.633 230.141 245.75 230.375 245.984C230.609 246.219 230.797 246.5 230.938 246.828C231.125 247.156 231.242 247.508 231.289 247.883C231.383 248.258 231.43 248.562 231.43 248.797C231.43 250.953 231.125 253.156 230.516 255.406C229.953 257.656 229.203 259.883 228.266 262.086C227.328 264.242 226.203 266.305 224.891 268.273C223.578 270.242 222.195 271.977 220.742 273.477L219.688 277.273C224.984 277.18 230.117 276.312 235.086 274.672C240.102 273.031 244.906 271.016 249.5 268.625H249.852C250.273 268.625 250.555 268.789 250.695 269.117C250.883 269.398 250.977 269.703 250.977 270.031C250.977 270.406 250.906 270.734 250.766 271.016C250.625 271.297 250.32 271.555 249.852 271.789C246.148 274.086 242.188 275.961 237.969 277.414C233.75 278.867 229.484 279.969 225.172 280.719C226.016 281.656 226.719 282.43 227.281 283.039C227.844 283.648 228.289 284.258 228.617 284.867C228.992 285.523 229.25 286.273 229.391 287.117C229.578 287.961 229.672 289.109 229.672 290.562C229.672 294.219 228.805 297.406 227.07 300.125C225.383 302.891 223.156 305.445 220.391 307.789C219.734 308.305 218.914 308.844 217.93 309.406C216.992 309.969 216.078 310.25 215.188 310.25C214.391 310.25 213.805 309.992 213.43 309.477C213.055 308.961 212.797 308.352 212.656 307.648C212.516 306.992 212.469 306.289 212.516 305.539C212.516 304.789 212.516 304.156 212.516 303.641ZM218.281 283.742C218.094 285.195 217.883 286.836 217.648 288.664C217.414 290.492 217.203 292.367 217.016 294.289C216.828 296.211 216.664 298.133 216.523 300.055C216.383 301.977 216.312 303.781 216.312 305.469C217.578 305.469 218.797 304.906 219.969 303.781C221.188 302.703 222.266 301.367 223.203 299.773C224.141 298.227 224.914 296.633 225.523 294.992C226.133 293.352 226.461 291.992 226.508 290.914C226.602 289.602 226.508 288.477 226.227 287.539C225.992 286.648 225.594 285.875 225.031 285.219C224.469 284.609 223.742 284.094 222.852 283.672C221.961 283.25 220.906 282.828 219.688 282.406H219.336C219.008 282.406 218.773 282.547 218.633 282.828C218.492 283.109 218.375 283.414 218.281 283.742ZM226.93 253.578C226.883 253.578 226.789 253.766 226.648 254.141C226.508 254.469 226.32 254.844 226.086 255.266C225.898 255.688 225.711 256.133 225.523 256.602C225.383 257.07 225.266 257.422 225.172 257.656C225.031 258.031 224.867 258.523 224.68 259.133C224.492 259.695 224.305 260.281 224.117 260.891C223.977 261.453 223.836 261.969 223.695 262.438C223.555 262.859 223.484 263.094 223.484 263.141V263.562C224.375 261.969 225.195 260.305 225.945 258.57C226.695 256.789 227.117 255.008 227.211 253.227L226.93 253.578ZM249.641 270.031C249.734 269.75 249.875 269.258 250.062 268.555C250.297 267.805 250.508 267.008 250.695 266.164C250.93 265.32 251.117 264.523 251.258 263.773C251.445 262.977 251.586 262.438 251.68 262.156C251.961 261.031 252.289 259.812 252.664 258.5C253.086 257.188 253.648 255.969 254.352 254.844C255.055 253.719 255.945 252.805 257.023 252.102C258.148 251.352 259.531 250.977 261.172 250.977C261.781 250.977 262.203 251.211 262.438 251.68C262.719 252.102 262.953 252.57 263.141 253.086C263.141 253.273 263.141 253.625 263.141 254.141C263.188 254.609 263.211 254.938 263.211 255.125C263.211 257.141 263 258.922 262.578 260.469C262.203 262.016 261.594 263.445 260.75 264.758C259.953 266.07 258.969 267.312 257.797 268.484C256.625 269.609 255.289 270.805 253.789 272.07C253.742 272.211 253.672 272.445 253.578 272.773C253.484 273.102 253.438 273.336 253.438 273.477V273.617C253.438 274.461 253.578 275.141 253.859 275.656C254.141 276.172 254.516 276.594 254.984 276.922C255.5 277.203 256.062 277.391 256.672 277.484C257.328 277.531 258.031 277.555 258.781 277.555C260.984 277.555 263.094 277.25 265.109 276.641C267.125 276.031 268.977 275.047 270.664 273.688C270.898 273.453 271.18 273.125 271.508 272.703C271.883 272.234 272.258 271.766 272.633 271.297C273.008 270.828 273.406 270.43 273.828 270.102C274.25 269.727 274.695 269.539 275.164 269.539C275.633 269.539 275.914 269.727 276.008 270.102C276.102 270.477 276.148 270.852 276.148 271.227C276.148 272.258 275.82 273.242 275.164 274.18C274.555 275.07 273.734 275.891 272.703 276.641C271.719 277.344 270.57 277.977 269.258 278.539C267.992 279.102 266.727 279.57 265.461 279.945C264.195 280.32 262.977 280.602 261.805 280.789C260.68 280.977 259.719 281.07 258.922 281.07C256.438 281.07 254.352 280.672 252.664 279.875C251.023 279.031 249.898 277.367 249.289 274.883L249.641 270.031ZM259.695 256.18C258.758 257.023 258.008 257.797 257.445 258.5C256.93 259.156 256.508 259.859 256.18 260.609C255.898 261.312 255.641 262.086 255.406 262.93C255.219 263.773 255.008 264.758 254.773 265.883C255.664 265.18 256.391 264.477 256.953 263.773C257.562 263.07 258.055 262.344 258.43 261.594C258.805 260.844 259.086 260.047 259.273 259.203C259.461 258.312 259.602 257.305 259.695 256.18ZM275.656 270.031C275.75 269.75 275.891 269.258 276.078 268.555C276.312 267.805 276.523 267.008 276.711 266.164C276.945 265.32 277.133 264.523 277.273 263.773C277.461 262.977 277.602 262.438 277.695 262.156C277.977 261.031 278.305 259.812 278.68 258.5C279.102 257.188 279.664 255.969 280.367 254.844C281.07 253.719 281.961 252.805 283.039 252.102C284.164 251.352 285.547 250.977 287.188 250.977C287.797 250.977 288.219 251.211 288.453 251.68C288.734 252.102 288.969 252.57 289.156 253.086C289.156 253.273 289.156 253.625 289.156 254.141C289.203 254.609 289.227 254.938 289.227 255.125C289.227 257.141 289.016 258.922 288.594 260.469C288.219 262.016 287.609 263.445 286.766 264.758C285.969 266.07 284.984 267.312 283.812 268.484C282.641 269.609 281.305 270.805 279.805 272.07C279.758 272.211 279.688 272.445 279.594 272.773C279.5 273.102 279.453 273.336 279.453 273.477V273.617C279.453 274.461 279.594 275.141 279.875 275.656C280.156 276.172 280.531 276.594 281 276.922C281.516 277.203 282.078 277.391 282.688 277.484C283.344 277.531 284.047 277.555 284.797 277.555C287 277.555 289.109 277.25 291.125 276.641C293.141 276.031 294.992 275.047 296.68 273.688C296.914 273.453 297.195 273.125 297.523 272.703C297.898 272.234 298.273 271.766 298.648 271.297C299.023 270.828 299.422 270.43 299.844 270.102C300.266 269.727 300.711 269.539 301.18 269.539C301.648 269.539 301.93 269.727 302.023 270.102C302.117 270.477 302.164 270.852 302.164 271.227C302.164 272.258 301.836 273.242 301.18 274.18C300.57 275.07 299.75 275.891 298.719 276.641C297.734 277.344 296.586 277.977 295.273 278.539C294.008 279.102 292.742 279.57 291.477 279.945C290.211 280.32 288.992 280.602 287.82 280.789C286.695 280.977 285.734 281.07 284.938 281.07C282.453 281.07 280.367 280.672 278.68 279.875C277.039 279.031 275.914 277.367 275.305 274.883L275.656 270.031ZM285.711 256.18C284.773 257.023 284.023 257.797 283.461 258.5C282.945 259.156 282.523 259.859 282.195 260.609C281.914 261.312 281.656 262.086 281.422 262.93C281.234 263.773 281.023 264.758 280.789 265.883C281.68 265.18 282.406 264.477 282.969 263.773C283.578 263.07 284.07 262.344 284.445 261.594C284.82 260.844 285.102 260.047 285.289 259.203C285.477 258.312 285.617 257.305 285.711 256.18Z" fill="#444A4A"/>
</svg>
