<svg width="370" height="267" viewBox="0 0 370 267" fill="none" xmlns="http://www.w3.org/2000/svg">
<path d="M256.835 202.785C199.235 242.785 133.502 218.452 107.835 201.285H107.335C107.002 200.618 106.235 198.885 105.835 197.285C105.564 196.199 103.129 193.825 100.81 191.785M256.835 202.785C234.335 217.285 173.535 236.985 110.335 199.785M256.835 202.785C201.235 240.385 136.002 220.785 110.335 206.285V199.785M256.835 202.785L256.335 202.285M110.335 199.785L106.835 196.785L102.835 192.285L100.81 191.785M296.335 196.285L290.835 200.285C288.835 195.085 266.669 199.118 255.835 201.785L256.335 202.285M296.335 196.285C301.669 197.118 311.035 200.485 305.835 207.285C299.502 212.285 279.735 223.185 251.335 226.785C226.169 231.118 164.935 237.185 121.335 226.785C82.3355 219.785 22.4355 202.685 94.8355 190.285L97.8354 189.285M296.335 196.285C286.735 193.485 275.002 188.118 270.335 185.785M97.8354 189.285C98.6391 189.928 99.7114 190.819 100.81 191.785M97.8354 189.285L89.579 177.785M83.8354 169.785C38.5021 174.118 -36.1646 192.785 27.8354 232.785C64.6688 253.118 171.835 284.685 305.835 248.285C356.669 230.118 423.535 188.885 284.335 169.285M83.8354 169.785C53.8354 119.385 52.6688 59.7851 55.8354 36.285M83.8354 169.785L89.579 177.785M284.335 169.285L296.835 141.785M284.335 169.285L277.335 177.535M256.335 202.285L270.335 185.785M270.335 185.785L277.335 177.535M290.835 196.785L271.335 188.785L263.835 197.785L279.835 194.785L281.835 195.785H283.335L272.335 191.785L270.335 192.785L268.835 194.785L272.335 194.285M296.835 141.785C326.002 138.618 380.435 121.585 364.835 78.7851C360.502 68.9517 344.635 51.9851 315.835 62.7851M296.835 141.785C298.365 139.155 299.82 135.93 301.196 132.285M315.835 62.7851C315.497 65.7757 315.046 69.3376 314.486 73.285M315.835 62.7851L314.486 73.285M301.196 132.285C301.755 130.802 302.302 129.249 302.835 127.638M301.196 132.285C302.447 132.062 303.961 131.763 305.607 131.401M302.835 127.638L325.835 124.285C326.169 122.785 326.235 120.685 323.835 124.285C321.894 127.197 312.566 129.868 305.607 131.401M302.835 127.638C303.197 126.546 303.552 125.427 303.901 124.285M303.901 124.285L305.607 131.401M303.901 124.285C308.027 110.792 311.268 94.103 313.439 80.285M303.901 124.285C312.185 123.999 325.208 121.585 334.835 115.077M313.439 80.285C339.123 74.685 346.738 86.285 347.335 92.785C347.335 98.7967 345.519 103.742 342.568 107.785M313.439 80.285C313.822 77.8516 314.171 75.5072 314.486 73.285M314.486 73.285C319.769 72.285 330.635 70.585 331.835 71.785M314.486 73.285V36.285M342.568 107.785C345.574 110.952 348.463 116.685 335.962 114.285M342.568 107.785C341.741 108.918 340.825 109.98 339.835 110.975M335.962 114.285C337.343 113.275 338.643 112.174 339.835 110.975M335.962 114.285C335.592 114.555 335.216 114.819 334.835 115.077M339.835 110.975C342.169 113.106 344.435 116.91 334.835 115.077M314.486 36.285C288.207 65.885 215.103 70.285 181.835 68.785C153.169 70.4517 87.8354 66.285 55.8354 36.285M314.486 36.285C314.989 33.2774 314.043 29.6007 310.82 25.785M55.8354 36.285C54.603 33.4409 55.2688 29.7231 59.4112 25.785M65.8354 87.285C74.6688 124.785 101.135 200.285 136.335 202.285M310.82 25.785C300.47 13.5313 266.631 -0.15513 181.835 2.28504C102.263 4.57491 69.8333 15.877 59.4112 25.785M310.82 25.785C309.346 27.7004 307.157 29.9133 304.211 32.285M59.4112 25.785C60.5882 27.8957 62.067 29.894 63.8105 31.785M63.8105 31.785C70.6522 26.4517 87.1354 16.285 98.3354 18.285M63.8105 31.785C70.8334 39.4025 82.1506 45.2813 95.3354 49.7661M147.335 10.785C155.335 9.78503 172.735 7.98503 178.335 8.78503M189.835 8.78503C199.835 8.61837 220.035 8.78503 220.835 10.785M95.3354 49.7661C123.54 59.3598 160.291 62.5746 181.835 62.7851C223.604 62.7851 254.223 56.1279 275.335 48.0012M95.3354 49.7661C118.002 40.7499 185.735 27.7742 275.335 48.0012M275.335 48.0012C288.551 42.9142 298.042 37.2513 304.211 32.285M277.335 177.535C291.169 177.618 319.835 179.185 323.835 184.785M89.579 177.785C72.8312 178.118 38.4354 180.885 34.8354 189.285M58.3354 215.285C71.3354 224.118 106.935 241.385 145.335 239.785M231.335 237.285C248.669 235.285 285.335 229.785 293.335 223.785M267.835 17.285C278.586 19.285 300.912 25.085 304.211 32.285M299.835 64.785C300.002 84.4517 293.435 135.385 265.835 181.785M251.335 196.785L259.335 188.285M103.835 196.285L87.3354 200.785C86.8354 201.452 86.2354 202.685 87.8354 202.285C89.4354 201.885 99.8354 199.452 104.835 198.285L103.835 196.285Z" stroke="#444A4A" stroke-width="4"/>
</svg>
