<svg width="163" height="35" viewBox="0 0 163 35" fill="none" xmlns="http://www.w3.org/2000/svg">
<path d="M61.4974 20.9778L56.8366 24.0133H56.6931C56.5338 24.0133 56.3745 23.9735 56.2151 23.8938C56.0717 23.8141 56 23.6787 56 23.4875C56 23.36 56.0319 23.2485 56.0956 23.1529C56.1753 23.0413 56.2709 22.9457 56.3824 22.866C56.5099 22.7704 56.7409 22.627 57.0756 22.4358C57.4102 22.2446 57.7607 22.0375 58.1272 21.8144C58.4937 21.5754 58.8443 21.3602 59.1789 21.169C59.5295 20.9778 59.7685 20.8424 59.896 20.7627C59.9597 20.699 60.0553 20.6273 60.1828 20.5476C60.3102 20.452 60.4218 20.3644 60.5174 20.2847C60.6289 20.1891 60.7245 20.1094 60.8042 20.0457C60.8839 19.9819 60.9237 19.9421 60.9237 19.9262L59.0833 16.1975C59.0036 16.086 58.9558 15.9983 58.9399 15.9346C58.9399 15.8549 58.9399 15.7514 58.9399 15.6239C58.9399 15.1458 59.1709 14.9068 59.633 14.9068C59.6968 14.9068 59.8402 14.9546 60.0633 15.0502C60.3023 15.1299 60.5891 15.2494 60.9237 15.4088C61.2583 15.5522 61.6089 15.7115 61.9754 15.8868C62.3419 16.0621 62.6765 16.2214 62.9793 16.3648C63.282 16.5082 63.537 16.6357 63.7441 16.7473C63.9512 16.8429 64.0548 16.8907 64.0548 16.8907L66.1821 14.6917C66.2299 14.5005 66.3653 14.2695 66.5884 13.9986C66.8274 13.7277 67.0744 13.4409 67.3293 13.1381C67.5843 12.8354 67.8074 12.5326 67.9986 12.2299C68.1898 11.9112 68.2854 11.6244 68.2854 11.3694V11.2977L66.6362 7.44955C66.4768 7.08306 66.3733 6.69267 66.3255 6.27838C66.2936 5.84815 66.2777 5.42589 66.2777 5.01159C66.2777 4.66104 66.3334 4.31048 66.445 3.95993C66.5565 3.59344 66.7159 3.26678 66.923 2.97996C67.1461 2.69314 67.409 2.4621 67.7118 2.28682C68.0145 2.09561 68.373 2 68.7873 2C69.2176 2 69.5681 2.12747 69.839 2.38242C70.1258 2.62144 70.3489 2.92419 70.5082 3.29068C70.6835 3.65717 70.803 4.04757 70.8668 4.46186C70.9305 4.86022 70.9624 5.22671 70.9624 5.56133C70.9624 6.51739 70.8508 7.43362 70.6277 8.31001C70.4206 9.17046 70.1338 10.0548 69.7673 10.9631V11.2977C70.1338 11.9829 70.5082 12.692 70.8907 13.4249C71.2731 14.1579 71.6157 14.9228 71.9184 15.7195C72.2212 16.5003 72.4682 17.289 72.6594 18.0857C72.8506 18.8665 72.9462 19.6553 72.9462 20.452C72.9462 21.0734 72.8426 21.655 72.6355 22.1968C72.4443 22.7226 72.1654 23.1847 71.7989 23.5831C71.4324 23.9815 70.9863 24.2922 70.4604 24.5153C69.9505 24.7383 69.3769 24.8499 68.7395 24.8499C68.0225 24.8499 67.3373 24.7463 66.684 24.5392C66.0466 24.3161 65.4252 24.0293 64.8197 23.6787C64.2301 23.3122 63.6644 22.8979 63.1227 22.4358C62.5968 21.9737 62.1029 21.4877 61.6408 20.9778H61.4974ZM62.6924 20.1652C62.6924 20.1811 62.7323 20.2369 62.8119 20.3325C62.9075 20.4281 63.0111 20.5396 63.1227 20.6671C63.2501 20.7786 63.3776 20.8982 63.5051 21.0256C63.6326 21.1531 63.7441 21.2567 63.8397 21.3363C63.8875 21.3842 63.9672 21.4559 64.0787 21.5515C64.2062 21.6311 64.3257 21.7267 64.4372 21.8383C64.5647 21.9339 64.6763 22.0295 64.7719 22.1251C64.8834 22.2048 64.9551 22.2526 64.987 22.2685C65.0826 22.3163 65.226 22.396 65.4172 22.5075C65.6084 22.6191 65.7996 22.7306 65.9908 22.8421C66.1821 22.9537 66.3653 23.0573 66.5406 23.1529C66.7159 23.2485 66.8194 23.3042 66.8513 23.3202C67.2178 23.4795 67.5524 23.5831 67.8552 23.6309C68.1739 23.6628 68.4925 23.6787 68.8112 23.6787C69.2893 23.6787 69.6956 23.5911 70.0302 23.4158C70.3808 23.2246 70.6676 22.9776 70.8907 22.6748C71.1137 22.3561 71.2731 21.9976 71.3687 21.5993C71.4802 21.185 71.536 20.7707 71.536 20.3564C71.536 19.9102 71.4962 19.4481 71.4165 18.9701C71.3528 18.4921 71.2412 18.0379 71.0819 17.6077L69.0024 12.6123L67.1142 15.2654L62.6924 20.0696V20.1652ZM60.8281 17.0102C60.8281 17.042 60.8361 17.1058 60.852 17.2014C60.8839 17.2811 60.9078 17.3368 60.9237 17.3687C60.9875 17.4802 61.0671 17.6316 61.1627 17.8228C61.2743 18.014 61.3778 18.1973 61.4735 18.3726C61.585 18.5319 61.6726 18.6833 61.7364 18.8267C61.816 18.9542 61.8638 19.0179 61.8798 19.0179H61.9754C62.0232 19.0179 62.1188 18.9542 62.2622 18.8267C62.4056 18.6833 62.557 18.5399 62.7163 18.3965C62.8757 18.2371 63.0191 18.0937 63.1466 17.9662C63.274 17.8228 63.3457 17.7431 63.3617 17.7272L63.2422 17.6077L61.1627 17.0102H60.8281ZM67.5444 4.98769C67.5444 5.88002 67.6799 6.69267 67.9508 7.42565C68.2217 8.1427 68.5642 8.89161 68.9785 9.6724C69.0582 9.62459 69.1299 9.52899 69.1937 9.38558C69.2574 9.22623 69.3132 9.05892 69.361 8.88364C69.4088 8.69243 69.4486 8.51715 69.4805 8.35781C69.5123 8.19847 69.5362 8.10286 69.5522 8.07099C69.5522 8.03912 69.5601 7.95945 69.5761 7.83198C69.6079 7.7045 69.6318 7.56109 69.6478 7.40175C69.6637 7.22647 69.6796 7.05916 69.6956 6.89982C69.7275 6.74047 69.7514 6.62096 69.7673 6.54129V6.46959C69.7673 6.40585 69.7593 6.20667 69.7434 5.87205C69.7434 5.53743 69.7195 5.17891 69.6717 4.79648C69.6239 4.39812 69.5362 4.04757 69.4088 3.74481C69.2813 3.42613 69.0901 3.26678 68.8351 3.26678C68.5802 3.26678 68.3651 3.31458 68.1898 3.41019C68.0145 3.5058 67.8791 3.63327 67.7835 3.79262C67.7038 3.95196 67.6401 4.1352 67.5922 4.34235C67.5604 4.5495 67.5444 4.76461 67.5444 4.98769Z" fill="black"/>
<path d="M74.0457 24.2284C74.0457 24.1806 74.0457 24.0611 74.0457 23.8699C74.0457 23.6787 74.0457 23.5512 74.0457 23.4875C73.7748 22.5314 73.7349 21.5913 73.9262 20.6671C74.1333 19.7429 74.4918 18.9143 75.0017 18.1813C75.5276 17.4324 76.1888 16.811 76.9856 16.317C77.7982 15.8071 78.6826 15.4964 79.6386 15.3849H80.0689C80.4194 15.3849 80.7062 15.4645 80.9293 15.6239C81.1683 15.7673 81.3516 15.9585 81.479 16.1975C81.6225 16.4365 81.7181 16.7074 81.7659 17.0102C81.8296 17.3129 81.8615 17.6157 81.8615 17.9184C81.8615 18.3327 81.8137 18.739 81.7181 19.1374C81.6384 19.5198 81.5428 19.9102 81.4312 20.3086C81.3356 20.7069 81.24 21.1053 81.1444 21.5037C81.0648 21.8861 81.0249 22.2924 81.0249 22.7226V22.866C81.0409 22.8979 81.0568 22.9935 81.0727 23.1529C81.1046 23.2963 81.1285 23.3839 81.1444 23.4158C81.1763 23.4158 81.256 23.4237 81.3834 23.4397C81.5109 23.4397 81.5906 23.4397 81.6225 23.4397C81.7818 23.4397 81.9332 23.4397 82.0766 23.4397C82.2359 23.4237 82.3953 23.3839 82.5546 23.3202L87.0959 21.2168C87.1118 21.2168 87.1357 21.2168 87.1676 21.2168C87.2154 21.2009 87.2473 21.1929 87.2632 21.1929C87.4226 21.1929 87.55 21.2407 87.6456 21.3363C87.7572 21.432 87.813 21.5594 87.813 21.7188C87.813 21.7984 87.805 21.8781 87.7891 21.9578C87.7891 22.0215 87.7492 22.0853 87.6695 22.149C87.558 22.2287 87.3509 22.3402 87.0481 22.4836C86.7613 22.627 86.4506 22.7864 86.1159 22.9617C85.7813 23.1369 85.4626 23.3042 85.1599 23.4636C84.8731 23.6229 84.6659 23.7265 84.5384 23.7743C84.3154 23.9018 84.0684 24.0213 83.7975 24.1328C83.5266 24.2284 83.2478 24.324 82.9609 24.4196C82.6741 24.5153 82.3873 24.5949 82.1005 24.6587C81.8296 24.7065 81.5826 24.7304 81.3595 24.7304C81.009 24.7304 80.7222 24.6746 80.4991 24.5631C80.276 24.4356 80.1087 24.2762 79.9971 24.085C79.8856 23.8779 79.8059 23.6389 79.7581 23.368C79.7263 23.0812 79.7263 22.7864 79.7581 22.4836C79.4394 22.7386 79.0969 23.0095 78.7304 23.2963C78.3639 23.5831 77.9815 23.846 77.5831 24.085C77.1847 24.324 76.7784 24.5312 76.3641 24.7065C75.9498 24.8817 75.5276 24.9694 75.0973 24.9694C74.8583 24.9694 74.6432 24.9136 74.452 24.8021C74.2608 24.6746 74.1253 24.4834 74.0457 24.2284ZM75.3363 23.7265C75.7028 23.7265 76.1092 23.6229 76.5553 23.4158C77.0015 23.1927 77.4397 22.9218 77.8699 22.6031C78.3001 22.2844 78.6905 21.9498 79.0411 21.5993C79.3916 21.2328 79.6625 20.9061 79.8537 20.6193C79.8697 20.1413 79.9334 19.6871 80.045 19.2569C80.1724 18.8108 80.2362 18.3566 80.2362 17.8945C80.2362 17.8627 80.2282 17.8149 80.2123 17.7511C80.2123 17.6874 80.2123 17.6396 80.2123 17.6077C80.0051 17.4324 79.8298 17.3289 79.6864 17.297C79.543 17.2651 79.3518 17.2492 79.1128 17.2492C79.0809 17.2492 79.0092 17.2492 78.8977 17.2492C78.8021 17.2492 78.7383 17.2572 78.7065 17.2731C78.6109 17.3528 78.4515 17.5041 78.2284 17.7272C78.0054 17.9344 77.7663 18.1654 77.5114 18.4204C77.2724 18.6753 77.0413 18.9143 76.8182 19.1374C76.6111 19.3605 76.4677 19.5119 76.388 19.5915C76.3721 19.5915 76.3402 19.6234 76.2924 19.6871C76.2446 19.7349 76.1888 19.7987 76.1251 19.8784C76.0773 19.958 76.0295 20.0377 75.9817 20.1174C75.9498 20.1811 75.9259 20.2369 75.91 20.2847L75.3363 23.0812V23.7265Z" fill="black"/>
<path d="M87.0003 24.3718C87.0481 23.9735 87.1118 23.599 87.1915 23.2485C87.2712 22.882 87.3588 22.5235 87.4544 22.1729C87.55 21.8223 87.6536 21.4638 87.7652 21.0973C87.8926 20.7149 88.0281 20.2847 88.1715 19.8067V19.6871C87.5341 20.0536 87.08 20.2369 86.8091 20.2369C86.5541 20.2369 86.4267 20.1413 86.4267 19.9501C86.4107 19.7588 86.4904 19.5039 86.6657 19.1852C86.8569 18.8665 87.08 18.5717 87.3349 18.3009C87.6058 18.03 87.8767 17.8149 88.1476 17.6555C88.4344 17.4962 88.6575 17.4723 88.8168 17.5838C89.008 17.5838 89.1594 17.6157 89.2709 17.6794C89.3984 17.7431 89.5339 17.8388 89.6773 17.9662C90.0438 17.6794 90.3864 17.4484 90.705 17.2731C91.0237 17.0978 91.4062 17.0102 91.8523 17.0102C92.5534 17.0102 93.0793 17.1695 93.4298 17.4882C93.7963 17.8069 94.0592 18.3168 94.2186 19.0179C94.4895 18.747 94.7364 18.5 94.9595 18.277C95.1826 18.0379 95.4216 17.8388 95.6766 17.6794C95.9474 17.5041 96.2343 17.3767 96.537 17.297C96.8398 17.2014 97.1824 17.1536 97.5648 17.1536C97.8835 17.1536 98.1942 17.2731 98.4969 17.5121C98.7997 17.7511 99.0148 18.014 99.1423 18.3009C99.1423 18.3646 99.1423 18.508 99.1423 18.7311C99.1423 18.9542 99.1423 19.1055 99.1423 19.1852C99.1423 19.727 99.0785 20.2528 98.9511 20.7627C98.8236 21.2567 98.7599 21.7666 98.7599 22.2924C98.7599 22.5155 98.7838 22.7465 98.8316 22.9856C98.8953 23.2086 99.0706 23.3202 99.3574 23.3202C99.7398 23.3202 100.082 23.2405 100.385 23.0812C100.704 22.9218 100.991 22.7306 101.246 22.5075C101.517 22.2685 101.756 22.0136 101.963 21.7427C102.186 21.4718 102.385 21.2248 102.56 21.0017C102.751 20.7627 102.927 20.5635 103.086 20.4042C103.245 20.2448 103.405 20.1652 103.564 20.1652C103.676 20.1652 103.795 20.213 103.923 20.3086C104.066 20.3883 104.138 20.4918 104.138 20.6193C104.138 20.6352 104.13 20.6591 104.114 20.691C104.114 20.7229 104.114 20.7468 104.114 20.7627C103.954 21.2567 103.723 21.7267 103.421 22.1729C103.118 22.6191 102.767 23.0174 102.369 23.368C101.971 23.7026 101.524 23.9735 101.031 24.1806C100.552 24.3718 100.043 24.4674 99.5008 24.4674C98.9909 24.4674 98.5607 24.4037 98.2101 24.2762C97.8596 24.1328 97.5887 23.8141 97.3975 23.3202C97.3975 23.2724 97.3895 23.1688 97.3736 23.0095C97.3736 22.8342 97.3736 22.7306 97.3736 22.6987C97.3736 22.0932 97.4293 21.5116 97.5409 20.9539C97.6684 20.3962 97.7321 19.8306 97.7321 19.2569C97.7321 19.2091 97.7241 19.1055 97.7082 18.9462C97.7082 18.7869 97.7082 18.6833 97.7082 18.6355C97.6445 18.5558 97.5409 18.516 97.3975 18.516C97.27 18.516 97.1505 18.516 97.0389 18.516C96.7043 18.516 96.3856 18.6355 96.0829 18.8745C95.7801 19.1135 95.5013 19.4163 95.2463 19.7827C94.9914 20.1492 94.7603 20.5635 94.5532 21.0256C94.362 21.4718 94.1947 21.9259 94.0513 22.388C93.9078 22.8342 93.7883 23.2564 93.6927 23.6548C93.6131 24.0372 93.5653 24.3559 93.5493 24.6109L93.2864 24.8499H92.4738C92.3303 24.8499 92.2507 24.7782 92.2347 24.6348C92.2347 24.4754 92.2347 24.3559 92.2347 24.2762C92.2347 23.8938 92.2586 23.5114 92.3064 23.129C92.3702 22.7306 92.4339 22.3402 92.4977 21.9578C92.5773 21.5594 92.649 21.1611 92.7128 20.7627C92.7765 20.3644 92.8163 19.974 92.8323 19.5915C92.8163 19.4641 92.8004 19.3286 92.7845 19.1852C92.7685 19.0259 92.7367 18.8825 92.6889 18.755C92.6411 18.6275 92.5694 18.5239 92.4738 18.4443C92.3781 18.3487 92.2427 18.3009 92.0674 18.3009C91.8125 18.3009 91.5655 18.3487 91.3265 18.4443C91.0875 18.5399 90.8644 18.6673 90.6572 18.8267C90.466 18.9701 90.2907 19.1533 90.1314 19.3764C89.988 19.5836 89.8844 19.8146 89.8207 20.0696L88.3866 24.7065L88.1715 24.9455C88.1715 24.9455 88.1237 24.9455 88.0281 24.9455C87.9325 24.9614 87.8608 24.9694 87.813 24.9694C87.6377 24.9694 87.4544 24.9534 87.2632 24.9216C87.0879 24.8738 87.0003 24.7224 87.0003 24.4674V24.3718Z" fill="black"/>
<path d="M103.301 23.5831C103.301 23.0254 103.365 22.4836 103.492 21.9578C103.62 21.432 103.795 20.9141 104.018 20.4042C104.162 19.8624 104.321 19.3605 104.496 18.8984C104.672 18.4204 104.847 18.014 105.022 17.6794C105.213 17.3289 105.404 17.058 105.596 16.8668C105.787 16.6596 105.986 16.556 106.193 16.556C106.4 16.556 106.552 16.6198 106.647 16.7473C106.759 16.8588 106.815 17.0181 106.815 17.2253V17.3687L105.644 20.1652C105.628 20.197 105.588 20.2608 105.524 20.3564C105.46 20.4361 105.428 20.4918 105.428 20.5237V20.6193C105.397 20.699 105.349 20.8264 105.285 21.0017C105.237 21.177 105.181 21.3682 105.118 21.5754C105.054 21.7666 104.99 21.9498 104.926 22.1251C104.879 22.3004 104.847 22.4199 104.831 22.4836C104.799 22.5633 104.775 22.6908 104.759 22.866C104.743 23.0413 104.735 23.1529 104.735 23.2007C104.735 23.2325 104.743 23.2963 104.759 23.3919C104.775 23.4716 104.799 23.5273 104.831 23.5592C105.436 23.3202 106.082 22.9617 106.767 22.4836C107.468 21.9897 108.137 21.4399 108.775 20.8344C109.412 20.2289 109.978 19.5995 110.472 18.9462C110.982 18.277 111.356 17.6316 111.595 17.0102C111.627 16.9942 111.707 16.9703 111.834 16.9385C111.961 16.9066 112.041 16.8907 112.073 16.8907C112.089 16.8907 112.105 16.8907 112.121 16.8907C112.153 16.8907 112.177 16.8907 112.193 16.8907C112.352 16.8907 112.487 16.9624 112.599 17.1058C112.726 17.2492 112.79 17.3926 112.79 17.536C112.79 17.5519 112.782 17.5838 112.766 17.6316C112.766 17.6794 112.766 17.7113 112.766 17.7272C112.479 18.4124 112.232 19.0657 112.025 19.6871C111.818 20.3086 111.714 20.9778 111.714 21.6949C111.714 21.9976 111.722 22.2446 111.738 22.4358C111.77 22.6111 111.842 22.866 111.954 23.2007C111.969 23.2803 112.001 23.3202 112.049 23.3202C112.113 23.3202 112.169 23.3202 112.216 23.3202C112.694 23.3202 113.172 23.1369 113.651 22.7704C114.129 22.404 114.559 21.9578 114.941 21.432C115.34 20.8902 115.658 20.3245 115.897 19.7349C116.136 19.1454 116.256 18.6275 116.256 18.1813C116.256 17.9423 116.232 17.7192 116.184 17.5121C116.152 17.289 116.136 17.0659 116.136 16.8429C116.136 16.6357 116.192 16.4525 116.304 16.2931C116.415 16.1338 116.574 16.0541 116.782 16.0541C116.925 16.0541 117.06 16.1019 117.188 16.1975C117.315 16.2772 117.435 16.3728 117.546 16.4843C117.674 16.5959 117.801 16.6994 117.929 16.7951C118.056 16.8907 118.2 16.9624 118.359 17.0102C118.742 17.0102 119.036 17.0102 119.243 17.0102C119.467 17.0102 119.634 17.0102 119.745 17.0102C119.873 17.0102 119.976 17.0022 120.056 16.9863C120.136 16.9544 120.231 16.9146 120.343 16.8668C120.454 16.803 120.606 16.7233 120.797 16.6277C121.004 16.5321 121.275 16.4047 121.61 16.2453C121.626 16.2294 121.658 16.2214 121.705 16.2214C121.753 16.2214 121.785 16.2214 121.801 16.2214C121.944 16.2214 122.072 16.2692 122.183 16.3648C122.295 16.4604 122.351 16.5879 122.351 16.7473C122.351 16.9225 122.303 17.0659 122.207 17.1775C122.128 17.2731 122.024 17.3607 121.897 17.4404C121.769 17.5041 121.626 17.5679 121.466 17.6316C121.323 17.6794 121.187 17.7192 121.06 17.7511C120.694 17.8945 120.407 17.9981 120.2 18.0618C120.008 18.1096 119.857 18.1495 119.745 18.1813C119.65 18.1973 119.57 18.2132 119.506 18.2291C119.443 18.2291 119.347 18.2291 119.22 18.2291C119.108 18.2291 118.949 18.2371 118.742 18.253C118.55 18.253 118.271 18.269 117.905 18.3009C117.873 18.3009 117.825 18.3168 117.762 18.3487C117.714 18.3805 117.682 18.4044 117.666 18.4204C117.57 19.1374 117.347 19.8704 116.997 20.6193C116.662 21.3523 116.224 22.0295 115.682 22.6509C115.14 23.2564 114.511 23.7504 113.794 24.1328C113.093 24.5153 112.36 24.7065 111.595 24.7065C111.436 24.7065 111.284 24.6427 111.141 24.5153C111.013 24.3718 110.894 24.2125 110.782 24.0372C110.687 23.8619 110.607 23.6867 110.543 23.5114C110.48 23.3202 110.44 23.1768 110.424 23.0812C110.408 23.0174 110.384 22.8979 110.352 22.7226C110.336 22.5474 110.312 22.3561 110.28 22.149C110.264 21.9419 110.241 21.7586 110.209 21.5993C110.193 21.424 110.185 21.2965 110.185 21.2168C109.898 21.5196 109.524 21.8861 109.061 22.3163C108.599 22.7306 108.097 23.1369 107.556 23.5353C107.014 23.9177 106.464 24.2523 105.906 24.5392C105.365 24.81 104.871 24.9455 104.425 24.9455C104.01 24.9455 103.715 24.8021 103.54 24.5153C103.381 24.2284 103.301 23.9177 103.301 23.5831Z" fill="black"/>
<path d="M121.586 24.2284C121.586 24.1806 121.586 24.0611 121.586 23.8699C121.586 23.6787 121.586 23.5512 121.586 23.4875C121.315 22.5314 121.275 21.5913 121.466 20.6671C121.673 19.7429 122.032 18.9143 122.542 18.1813C123.068 17.4324 123.729 16.811 124.526 16.317C125.338 15.8071 126.223 15.4964 127.179 15.3849H127.609C127.96 15.3849 128.246 15.4645 128.469 15.6239C128.708 15.7673 128.892 15.9585 129.019 16.1975C129.163 16.4365 129.258 16.7074 129.306 17.0102C129.37 17.3129 129.402 17.6157 129.402 17.9184C129.402 18.3327 129.354 18.739 129.258 19.1374C129.179 19.5198 129.083 19.9102 128.971 20.3086C128.876 20.7069 128.78 21.1053 128.685 21.5037C128.605 21.8861 128.565 22.2924 128.565 22.7226V22.866C128.581 22.8979 128.597 22.9935 128.613 23.1529C128.645 23.2963 128.669 23.3839 128.685 23.4158C128.716 23.4158 128.796 23.4237 128.924 23.4397C129.051 23.4397 129.131 23.4397 129.163 23.4397C129.322 23.4397 129.473 23.4397 129.617 23.4397C129.776 23.4237 129.935 23.3839 130.095 23.3202L134.636 21.2168C134.652 21.2168 134.676 21.2168 134.708 21.2168C134.756 21.2009 134.787 21.1929 134.803 21.1929C134.963 21.1929 135.09 21.2407 135.186 21.3363C135.297 21.432 135.353 21.5594 135.353 21.7188C135.353 21.7984 135.345 21.8781 135.329 21.9578C135.329 22.0215 135.289 22.0853 135.21 22.149C135.098 22.2287 134.891 22.3402 134.588 22.4836C134.301 22.627 133.991 22.7864 133.656 22.9617C133.321 23.1369 133.003 23.3042 132.7 23.4636C132.413 23.6229 132.206 23.7265 132.079 23.7743C131.856 23.9018 131.609 24.0213 131.338 24.1328C131.067 24.2284 130.788 24.324 130.501 24.4196C130.214 24.5153 129.927 24.5949 129.641 24.6587C129.37 24.7065 129.123 24.7304 128.9 24.7304C128.549 24.7304 128.262 24.6746 128.039 24.5631C127.816 24.4356 127.649 24.2762 127.537 24.085C127.426 23.8779 127.346 23.6389 127.298 23.368C127.266 23.0812 127.266 22.7864 127.298 22.4836C126.98 22.7386 126.637 23.0095 126.271 23.2963C125.904 23.5831 125.522 23.846 125.123 24.085C124.725 24.324 124.319 24.5312 123.904 24.7065C123.49 24.8817 123.068 24.9694 122.638 24.9694C122.398 24.9694 122.183 24.9136 121.992 24.8021C121.801 24.6746 121.666 24.4834 121.586 24.2284ZM122.877 23.7265C123.243 23.7265 123.649 23.6229 124.095 23.4158C124.542 23.1927 124.98 22.9218 125.41 22.6031C125.84 22.2844 126.231 21.9498 126.581 21.5993C126.932 21.2328 127.203 20.9061 127.394 20.6193C127.41 20.1413 127.474 19.6871 127.585 19.2569C127.713 18.8108 127.776 18.3566 127.776 17.8945C127.776 17.8627 127.768 17.8149 127.752 17.7511C127.752 17.6874 127.752 17.6396 127.752 17.6077C127.545 17.4324 127.37 17.3289 127.227 17.297C127.083 17.2651 126.892 17.2492 126.653 17.2492C126.621 17.2492 126.549 17.2492 126.438 17.2492C126.342 17.2492 126.279 17.2572 126.247 17.2731C126.151 17.3528 125.992 17.5041 125.769 17.7272C125.546 17.9344 125.307 18.1654 125.052 18.4204C124.813 18.6753 124.581 18.9143 124.358 19.1374C124.151 19.3605 124.008 19.5119 123.928 19.5915C123.912 19.5915 123.88 19.6234 123.833 19.6871C123.785 19.7349 123.729 19.7987 123.665 19.8784C123.617 19.958 123.57 20.0377 123.522 20.1174C123.49 20.1811 123.466 20.2369 123.45 20.2847L122.877 23.0812V23.7265Z" fill="black"/>
<path d="M133.298 30.9687C133.298 29.9329 133.529 28.9769 133.991 28.1005C134.437 27.24 135.011 26.4513 135.712 25.7342C136.429 25.0331 137.217 24.4037 138.078 23.846C138.954 23.2883 139.807 22.8023 140.635 22.388L141.329 20.1652C141.249 20.2608 141.089 20.4201 140.85 20.6432C140.627 20.8663 140.388 21.1053 140.133 21.3603C139.878 21.5993 139.631 21.8303 139.392 22.0534C139.153 22.2605 138.986 22.4039 138.891 22.4836C138.699 22.643 138.468 22.8262 138.197 23.0334C137.927 23.2405 137.632 23.4397 137.313 23.6309C137.01 23.8062 136.7 23.9576 136.381 24.085C136.062 24.1966 135.775 24.2523 135.52 24.2523C135.17 24.2523 134.939 24.1727 134.827 24.0133C134.732 23.838 134.684 23.5911 134.684 23.2724C134.684 23.0174 134.7 22.7545 134.732 22.4836C134.779 22.2127 134.772 21.9419 134.708 21.671L135.64 19.1374C135.783 18.994 135.919 18.7709 136.046 18.4682C136.19 18.1654 136.325 17.8627 136.453 17.5599C136.596 17.2572 136.739 16.9942 136.883 16.7712C137.042 16.5481 137.209 16.4365 137.385 16.4365C137.576 16.4365 137.735 16.4923 137.863 16.6038C138.006 16.7154 138.078 16.8747 138.078 17.0819C138.078 17.2412 138.054 17.3846 138.006 17.5121C137.974 17.6236 137.919 17.775 137.839 17.9662C137.632 18.3965 137.425 18.8028 137.217 19.1852C137.026 19.5676 136.843 19.9501 136.668 20.3325C136.508 20.7149 136.373 21.1133 136.261 21.5276C136.166 21.9259 136.118 22.3721 136.118 22.866H136.214C136.214 22.866 136.261 22.8421 136.357 22.7943C136.453 22.7306 136.556 22.6669 136.668 22.6031C136.795 22.5235 136.923 22.4438 137.05 22.3641C137.178 22.2844 137.289 22.2127 137.385 22.149C138.261 21.5754 139.034 20.9061 139.703 20.1413C140.372 19.3605 141.034 18.5558 141.687 17.7272C141.751 17.6316 141.807 17.5599 141.854 17.5121C141.902 17.4643 141.942 17.4324 141.974 17.4165C142.006 17.3846 142.046 17.3687 142.093 17.3687C142.141 17.3687 142.213 17.3687 142.308 17.3687C142.532 17.3687 142.707 17.4165 142.834 17.5121C142.978 17.5918 143.065 17.783 143.097 18.0857C143.113 18.2929 143.097 18.5478 143.049 18.8506C143.002 19.1374 142.938 19.4242 142.858 19.711C142.779 19.9979 142.691 20.2847 142.595 20.5715C142.516 20.8424 142.444 21.0575 142.38 21.2168V21.5754C142.412 21.5594 142.484 21.5355 142.595 21.5037C142.723 21.4718 142.81 21.4479 142.858 21.432C142.954 21.416 143.217 21.3284 143.647 21.169C144.077 21.0097 144.539 20.8424 145.033 20.6671C145.543 20.4759 146.013 20.3006 146.443 20.1413C146.874 19.9819 147.145 19.8784 147.256 19.8306H147.304C147.415 19.8306 147.511 19.8704 147.591 19.9501C147.686 20.0297 147.734 20.1253 147.734 20.2369C147.734 20.3484 147.694 20.444 147.615 20.5237C147.551 20.6034 147.471 20.6751 147.376 20.7388C147.28 20.7866 147.176 20.8344 147.065 20.8822C146.953 20.93 146.858 20.9699 146.778 21.0017C146.667 21.0655 146.507 21.1451 146.3 21.2407C146.093 21.3204 145.854 21.416 145.583 21.5276C145.328 21.6232 145.057 21.7347 144.77 21.8622C144.484 21.9897 144.205 22.1092 143.934 22.2207C143.28 22.4916 142.571 22.7784 141.807 23.0812L139.703 31.0165C139.608 31.3989 139.424 31.7973 139.153 32.2115C138.899 32.6258 138.596 33.0083 138.245 33.3588C137.895 33.7094 137.504 33.9882 137.074 34.1954C136.66 34.4185 136.237 34.53 135.807 34.53C135.361 34.53 134.979 34.4105 134.66 34.1715C134.341 33.9484 134.078 33.6536 133.871 33.2871C133.664 32.9366 133.521 32.5541 133.441 32.1398C133.345 31.7256 133.298 31.3352 133.298 30.9687ZM134.588 30.9687C134.588 31.1758 134.604 31.4069 134.636 31.6618C134.684 31.9168 134.764 32.1637 134.875 32.4028C134.987 32.6418 135.122 32.841 135.281 33.0003C135.457 33.1596 135.68 33.2393 135.951 33.2393C136.301 33.2393 136.62 33.1278 136.907 32.9047C137.209 32.6975 137.472 32.4346 137.695 32.1159C137.934 31.8132 138.134 31.4865 138.293 31.136C138.452 30.7854 138.58 30.4747 138.675 30.2038C138.723 30.0126 138.795 29.7417 138.891 29.3912C138.986 29.0565 139.074 28.7219 139.153 28.3873C139.249 28.0527 139.329 27.7499 139.392 27.479C139.456 27.2241 139.488 27.0727 139.488 27.0249V26.9293L140.181 23.9177C139.544 24.1249 138.891 24.4754 138.221 24.9694C137.568 25.4633 136.97 26.037 136.429 26.6903C135.887 27.3436 135.441 28.0447 135.09 28.7936C134.756 29.5425 134.588 30.2676 134.588 30.9687Z" fill="black"/>
<path d="M146.874 20.6193C146.874 20.6193 146.882 20.6113 146.898 20.5954C146.929 20.5635 146.953 20.5396 146.969 20.5237C147.001 20.3803 147.065 20.1333 147.16 19.7827C147.256 19.4322 147.36 19.0577 147.471 18.6594C147.583 18.2451 147.686 17.8627 147.782 17.5121C147.893 17.1615 147.973 16.9225 148.021 16.7951C148.037 16.7313 148.085 16.5959 148.164 16.3887C148.26 16.1656 148.364 15.9266 148.475 15.6717C148.587 15.4167 148.698 15.1618 148.81 14.9068C148.921 14.6519 149.001 14.4607 149.049 14.3332C149.16 14.1101 149.328 13.8153 149.551 13.4488C149.79 13.0823 150.053 12.7398 150.339 12.4211C150.642 12.0865 150.953 11.7996 151.272 11.5606C151.59 11.3057 151.885 11.1782 152.156 11.1782C152.299 11.1782 152.411 11.218 152.491 11.2977C152.586 11.3774 152.65 11.473 152.682 11.5845C152.73 11.6801 152.761 11.7917 152.777 11.9191C152.793 12.0466 152.801 12.1582 152.801 12.2538C152.801 13.0823 152.682 13.9109 152.443 14.7395C152.22 15.5522 151.909 16.333 151.511 17.0819C151.112 17.8308 150.634 18.5399 150.076 19.2091C149.535 19.8624 148.961 20.452 148.356 20.9778C148.34 21.0256 148.316 21.1212 148.284 21.2646C148.268 21.4081 148.252 21.5116 148.236 21.5754V21.6232C148.236 21.9419 148.316 22.1968 148.475 22.388C148.65 22.5792 148.857 22.7226 149.097 22.8182C149.336 22.8979 149.598 22.9537 149.885 22.9856C150.188 23.0174 150.475 23.0334 150.746 23.0334C150.889 23.0334 151.096 22.9617 151.367 22.8182C151.654 22.6748 151.941 22.5155 152.228 22.3402C152.53 22.149 152.825 21.9817 153.112 21.8383C153.399 21.6949 153.614 21.6232 153.757 21.6232C153.901 21.6232 154.012 21.671 154.092 21.7666C154.172 21.8622 154.211 21.9817 154.211 22.1251C154.211 22.3641 154.028 22.6191 153.662 22.8899C153.295 23.1608 152.873 23.4158 152.395 23.6548C151.917 23.8779 151.455 24.0691 151.009 24.2284C150.578 24.3878 150.292 24.4674 150.148 24.4674C149.67 24.5631 149.224 24.571 148.81 24.4914C148.395 24.3957 148.037 24.2444 147.734 24.0372C147.431 23.8141 147.176 23.5512 146.969 23.2485C146.778 22.9298 146.659 22.6031 146.611 22.2685L146.874 20.6193ZM151.391 13.4966C151.248 13.4966 151.08 13.6162 150.889 13.8552C150.714 14.0782 150.539 14.3412 150.363 14.6439C150.188 14.9467 150.029 15.2415 149.885 15.5283C149.758 15.7992 149.686 15.9824 149.67 16.078C149.622 16.1895 149.551 16.3728 149.455 16.6277C149.359 16.8827 149.264 17.1536 149.168 17.4404C149.073 17.7113 148.977 17.9742 148.881 18.2291C148.802 18.4841 148.746 18.6673 148.714 18.7789H148.834C148.834 18.7789 148.881 18.7231 148.977 18.6116C149.073 18.4841 149.176 18.3407 149.288 18.1813C149.415 18.022 149.543 17.8627 149.67 17.7033C149.814 17.528 149.917 17.3846 149.981 17.2731C150.045 17.1775 150.132 17.0341 150.244 16.8429C150.355 16.6357 150.427 16.5082 150.459 16.4604C150.523 16.2852 150.61 16.0541 150.722 15.7673C150.833 15.4645 150.937 15.1698 151.033 14.8829C151.128 14.5961 151.208 14.3491 151.272 14.142C151.351 13.9189 151.391 13.7914 151.391 13.7596V13.4966Z" fill="black"/>
<path d="M153.757 21.2168C153.789 21.1212 153.837 20.9539 153.901 20.7149C153.98 20.46 154.052 20.1891 154.116 19.9023C154.196 19.6154 154.259 19.3446 154.307 19.0896C154.371 18.8187 154.419 18.6355 154.45 18.5399C154.546 18.1574 154.658 17.7431 154.785 17.297C154.928 16.8508 155.12 16.4365 155.359 16.0541C155.598 15.6717 155.9 15.361 156.267 15.1219C156.649 14.867 157.119 14.7395 157.677 14.7395C157.884 14.7395 158.028 14.8192 158.107 14.9785C158.203 15.1219 158.283 15.2813 158.346 15.4566C158.346 15.5203 158.346 15.6398 158.346 15.8151C158.362 15.9744 158.37 16.086 158.37 16.1497C158.37 16.8349 158.299 17.4404 158.155 17.9662C158.028 18.4921 157.821 18.9781 157.534 19.4242C157.263 19.8704 156.928 20.2926 156.53 20.691C156.132 21.0734 155.677 21.4798 155.168 21.91C155.152 21.9578 155.128 22.0375 155.096 22.149C155.064 22.2605 155.048 22.3402 155.048 22.388V22.4358C155.048 22.7226 155.096 22.9537 155.191 23.129C155.287 23.3042 155.414 23.4477 155.574 23.5592C155.749 23.6548 155.94 23.7185 156.147 23.7504C156.371 23.7663 156.61 23.7743 156.865 23.7743C157.613 23.7743 158.33 23.6707 159.016 23.4636C159.701 23.2564 160.33 22.9218 160.904 22.4597C160.984 22.38 161.079 22.2685 161.191 22.1251C161.318 21.9658 161.446 21.8064 161.573 21.6471C161.701 21.4877 161.836 21.3523 161.979 21.2407C162.123 21.1133 162.274 21.0495 162.434 21.0495C162.593 21.0495 162.689 21.1133 162.72 21.2407C162.752 21.3682 162.768 21.4957 162.768 21.6232C162.768 21.9737 162.657 22.3083 162.434 22.627C162.226 22.9298 161.948 23.2086 161.597 23.4636C161.262 23.7026 160.872 23.9177 160.426 24.1089C159.996 24.3001 159.565 24.4595 159.135 24.587C158.705 24.7144 158.291 24.81 157.892 24.8738C157.51 24.9375 157.183 24.9694 156.912 24.9694C156.068 24.9694 155.359 24.8339 154.785 24.5631C154.227 24.2762 153.845 23.7106 153.638 22.866L153.757 21.2168ZM157.175 16.5082C156.857 16.7951 156.602 17.058 156.41 17.297C156.235 17.5201 156.092 17.7591 155.98 18.014C155.885 18.253 155.797 18.516 155.717 18.8028C155.654 19.0896 155.582 19.4242 155.502 19.8067C155.805 19.5676 156.052 19.3286 156.243 19.0896C156.45 18.8506 156.618 18.6036 156.745 18.3487C156.872 18.0937 156.968 17.8228 157.032 17.536C157.096 17.2333 157.143 16.8907 157.175 16.5082Z" fill="black"/>
<path d="M4.89708 12.5137C5.284 12.4012 5.69943 12.4427 6.05642 12.6296L8.00006 13.6468L12.5001 15.3913L17.5001 18.0081L19.1037 18.8474C19.6953 19.157 20.3429 19.345 21.0083 19.4003L30.5001 20.1888L43.2655 20.5727C43.884 20.5913 44.1586 21.3589 43.6923 21.7657V21.7657C43.5684 21.8738 43.4095 21.9333 43.245 21.9333H42.5001H42.8432C42.9443 21.9333 43.0421 21.97 43.1183 22.0365V22.0365C43.4146 22.2949 43.2235 22.7822 42.8306 22.7704L29.5001 22.3695L19.5281 21.1833C18.8499 21.1027 18.1955 20.8839 17.6051 20.5406L13.1146 17.9294C12.707 17.6923 12.2678 17.5141 11.8103 17.4001L5.68642 15.8739C5.56252 15.843 5.44214 15.7994 5.32723 15.7437L4.65224 15.4166C3.36611 14.7933 3.52473 12.9127 4.89708 12.5137V12.5137Z" fill="#2D635E"/>
<path d="M8.05184 23.4341C8.0307 23.415 8.04076 23.3799 8.06881 23.3749L10.5061 22.9388C10.9992 22.8506 11.4763 22.6887 11.9214 22.4587L13.5 21.6426L16.212 19.9666C16.8995 19.5417 17.6918 19.3166 18.5 19.3166V19.3166V19.3166C18.9634 19.3166 19.3823 19.0407 19.5653 18.615L19.7605 18.1608C19.7623 18.1567 19.7669 18.1547 19.7711 18.1562L23.4505 19.4399C24.1175 19.6726 24.388 20.4702 24.0003 21.0607V21.0607C24.0001 21.061 23.9999 21.0613 23.9998 21.0616V21.0616C23.5196 22.1994 22.7263 23.1807 21.7135 23.8874L21.4989 24.0371C21.0105 24.3779 20.483 24.659 19.9277 24.8743L17.7637 25.7132V25.7132C14.5106 26.7914 10.9291 26.0368 8.3876 23.7378L8.05184 23.4341Z" fill="#2D635E"/>
<path d="M21.4587 6.25589C21.377 6.1057 21.1505 6.15755 21.1214 6.33308L20.6001 9.48648L20.2652 11.7696L19.7397 13.9398C19.3685 15.4729 19.2068 17.0397 19.2594 18.5938V18.5938C19.26 18.6099 19.2652 18.6253 19.2743 18.638L19.6928 19.2177L20.1908 20.0763C20.1938 20.0815 20.1986 20.0852 20.2042 20.0869L21.1644 20.3778C21.3849 20.4447 21.5835 20.5659 21.7434 20.7315L22.1045 21.1054C22.8606 21.8882 24.2147 21.2843 24.2519 20.1478V20.1478C24.2541 20.0785 24.2619 20.0092 24.275 19.9406L24.4617 18.9658C24.7786 17.3118 24.7937 15.6293 24.5065 14.0057L24.4009 13.4089C24.0976 11.6945 23.5273 10.0569 22.7114 8.55763L21.4587 6.25589Z" fill="#2D635E"/>
<path d="M1.88568 4.9434C2.76567 3.71526 4.07338 2.86086 5.55156 2.54829L7.15886 2.20841C8.21546 1.98498 9.23027 1.59646 10.1659 1.05715L11.98 0.0115286C11.9887 0.00652736 11.9995 0.0130598 11.999 0.0230661L11.9756 0.588748C11.8364 3.94568 10.0757 7.02595 7.25366 8.84931V8.84931V8.84931C6.11215 9.51312 5.64589 10.9247 6.16744 12.1378L6.75014 13.4932C6.75241 13.4985 6.75269 13.5044 6.75091 13.5099L6.15573 15.3468C6.06289 15.6334 5.79599 15.8275 5.49478 15.8275V15.8275C5.16658 15.8275 4.84004 15.7809 4.5249 15.6893L3.00349 15.247C3.00117 15.2463 2.99895 15.2453 2.99686 15.2441V15.2441C1.17401 14.1841 0.145128 12.1511 0.370465 10.0545L0.499345 8.85541C0.499779 8.85137 0.500827 8.84742 0.502453 8.84369L0.751155 8.27355C0.752809 8.26976 0.753662 8.26567 0.753662 8.26153V8.26153C0.753662 7.13114 1.10771 6.02914 1.7661 5.11028L1.88568 4.9434Z" fill="#2D635E"/>
<path d="M3.31337 5.66395C2.85157 6.04393 2.62356 6.90315 2.56728 7.28526C2.4834 7.65999 2.37551 7.43843 2.24619 7.24956C2.41047 7.28229 2.65733 7.21348 2.33062 6.6764C2.0039 6.13932 2.30705 5.6884 2.49946 5.53007C2.6356 5.75386 2.94164 5.97216 3.07672 5.0551C3.24556 3.90877 4.6396 4.77649 4.14678 4.67831C3.75252 4.59976 3.59765 4.96223 3.5695 5.15328C3.73378 5.18601 3.77517 5.28397 3.31337 5.66395Z" fill="white" stroke="white" stroke-width="0.1"/>
<path d="M11.152 24.528C11.5189 24.7802 12.2664 24.983 12.5943 25.0529C12.9187 25.1344 12.7428 25.1571 12.5965 25.1933C12.6076 25.1232 12.5247 25.004 12.1047 25.0884C11.6848 25.1729 11.274 24.9838 11.1211 24.8788C11.2961 24.8436 11.4494 24.7313 10.6625 24.5635C9.67885 24.3538 10.2701 23.8275 10.237 24.0379C10.2104 24.2062 10.5317 24.3182 10.6956 24.3531C10.7067 24.283 10.7851 24.2758 11.152 24.528Z" fill="white" stroke="white" stroke-width="0.1"/>
</svg>
