<svg width="56" height="35" viewBox="0 0 56 35" fill="none" xmlns="http://www.w3.org/2000/svg">
<path d="M6.094 15.5727C6.57549 15.4327 7.09247 15.4843 7.53673 15.7168L9.95548 16.9827L15.5555 19.1537L21.7777 22.4102L23.9925 23.5693C24.584 23.8789 25.2316 24.0669 25.897 24.1221L37.9554 25.1239L53.8412 25.6017C54.6109 25.6248 54.9527 26.58 54.3724 27.0862C54.2182 27.2207 54.0204 27.2948 53.8158 27.2948H52.8887H53.3157C53.4416 27.2948 53.5632 27.3404 53.6581 27.4232C54.0268 27.7448 53.789 28.3513 53.3 28.3366L36.711 27.8376L24.0501 26.3316C23.372 26.251 22.7176 26.0322 22.1272 25.6889L16.17 22.2248C15.7624 21.9877 15.3232 21.8095 14.8657 21.6955L7.07629 19.7542C6.92209 19.7158 6.7723 19.6615 6.62929 19.5922L5.78931 19.1852C4.18879 18.4096 4.38619 16.0692 6.094 15.5727Z" fill="#2D635E"/>
<path d="M10.0201 29.1622C9.99378 29.1384 10.0063 29.0947 10.0412 29.0885L13.2561 28.5132C13.7492 28.425 14.2263 28.2631 14.6714 28.0331L16.8 26.9328L20.1749 24.847C21.0305 24.3182 22.0164 24.0381 23.0222 24.0381C23.5989 24.0381 24.1201 23.6948 24.3479 23.1651L24.5909 22.5999C24.5931 22.5948 24.5988 22.5922 24.6041 22.5941L29.1828 24.1916C30.0128 24.4812 30.3495 25.4738 29.867 26.2085C29.8668 26.2089 29.8665 26.2093 29.8664 26.2097C29.2688 27.6256 28.2816 28.8468 27.0213 29.7262L26.7542 29.9126C26.1464 30.3367 25.49 30.6864 24.7989 30.9543L22.1059 31.9984C18.0577 33.3401 13.6007 32.4011 10.4379 29.5401L10.0201 29.1622Z" fill="#2D635E"/>
<path d="M26.7042 7.78533C26.6025 7.59844 26.3205 7.66296 26.2844 7.88139L25.6356 11.8056L25.2188 14.6468L24.5649 17.3475C24.103 19.2554 23.9018 21.2052 23.9673 23.1391C23.968 23.1592 23.9744 23.1784 23.9858 23.1941L24.5065 23.9155L25.1263 24.984C25.1301 24.9904 25.136 24.9951 25.143 24.9973L26.3379 25.3593C26.6123 25.4424 26.8594 25.5934 27.0584 25.7994L27.5078 26.2646C28.4487 27.2388 30.1337 26.4874 30.1801 25.073C30.1829 24.9868 30.1925 24.9006 30.2089 24.8152L30.4412 23.6021C30.8355 21.5437 30.8544 19.45 30.4969 17.4296L30.3655 16.6868C29.9881 14.5534 29.2784 12.5155 28.263 10.6497L26.7042 7.78533Z" fill="#2D635E"/>
<path d="M2.34662 6.15177C3.44171 4.62342 5.06908 3.56017 6.90859 3.17119L8.90878 2.74824C10.2237 2.47019 11.4865 1.9867 12.6509 1.31556L14.9084 0.0143467C14.9192 0.00812292 14.9326 0.0162522 14.9321 0.0287044L14.9029 0.732663C14.7297 4.91017 12.5386 8.74338 9.02676 11.0125C7.60621 11.8385 7.02598 13.5951 7.67502 15.1048L8.40015 16.7915C8.40298 16.7981 8.40332 16.8055 8.40112 16.8123L7.66045 19.0982C7.54491 19.4548 7.21277 19.6963 6.83794 19.6963C6.42951 19.6963 6.02315 19.6385 5.63097 19.5244L3.73767 18.974C3.73479 18.9731 3.73201 18.9719 3.72942 18.9704C1.46098 17.6513 0.180604 15.1213 0.461022 12.5123L0.621405 11.02C0.621946 11.015 0.62325 11.0101 0.625273 11.0055L0.934769 10.296C0.936827 10.2912 0.937889 10.2861 0.937889 10.281C0.937889 8.87429 1.37849 7.50292 2.19781 6.35945L2.34662 6.15177Z" fill="#2D635E"/>
<path d="M4.12316 7.04855C3.54848 7.52141 3.26473 8.59065 3.1947 9.06616C3.09031 9.5325 2.95604 9.25678 2.79512 9.02174C2.99955 9.06247 3.30676 8.97684 2.90018 8.30848C2.4936 7.64011 2.87085 7.07897 3.1103 6.88194C3.27971 7.16043 3.66056 7.43209 3.82866 6.29086C4.03877 4.86433 5.77358 5.94415 5.16029 5.82197C4.66966 5.72422 4.47693 6.17529 4.4419 6.41304C4.64633 6.45377 4.69784 6.57568 4.12316 7.04855Z" fill="white" stroke="white" stroke-width="0.1"/>
<path d="M13.8781 30.5237C14.3347 30.8376 15.2649 31.09 15.6729 31.177C16.0767 31.2783 15.8577 31.3066 15.6757 31.3516C15.6895 31.2644 15.5863 31.1161 15.0637 31.2212C14.5411 31.3263 14.0299 31.091 13.8397 30.9602C14.0574 30.9165 14.2481 30.7767 13.2689 30.5679C12.0448 30.307 12.7807 29.652 12.7394 29.9138C12.7064 30.1233 13.1062 30.2626 13.3102 30.3061C13.3239 30.2189 13.4215 30.2099 13.8781 30.5237Z" fill="white" stroke="white" stroke-width="0.1"/>
</svg>
